<svg width="369" height="392" viewBox="0 0 369 392" fill="none" xmlns="http://www.w3.org/2000/svg">
<path d="M3.59405 79.8539C2.42286 80.1833 1.43014 80.9638 0.833677 82.0242C0.237214 83.0846 0.0857009 84.3383 0.412382 85.5103L77.1286 359.488C77.458 360.66 78.2385 361.652 79.2989 362.249C80.3593 362.845 81.613 362.997 82.7849 362.67L365.6 283.48C366.771 283.15 367.764 282.37 368.36 281.309C368.957 280.249 369.108 278.995 368.781 277.823L292.065 3.84502C291.736 2.67383 290.955 1.68113 289.895 1.08466C288.834 0.488194 287.581 0.33668 286.409 0.663351L3.59405 79.8539Z" fill="#F1F1F1"/>
<path d="M86.3394 349.732L355.844 274.269L282.855 13.6006L13.3501 89.0642L86.3394 349.732Z" fill="white"/>
<path d="M48.9819 123.871C47.1838 124.374 46.4425 127.361 47.3294 130.529C48.2163 133.696 50.4009 135.864 52.199 135.36L175.116 100.942C176.914 100.439 177.656 97.452 176.769 94.2845C175.882 91.117 173.697 88.9496 171.899 89.453L48.9819 123.871Z" fill="#F1F1F1"/>
<path d="M58.8808 159.223C57.0827 159.726 56.3414 162.713 57.2283 165.881C58.1153 169.048 60.2998 171.216 62.0979 170.712L185.015 136.294C186.813 135.791 187.554 132.804 186.668 129.637C185.781 126.469 183.596 124.302 181.798 124.805L58.8808 159.223Z" fill="#F1F1F1"/>
<path d="M68.6655 194.167C66.8674 194.671 66.1261 197.657 67.013 200.825C67.8999 203.993 70.0845 206.16 71.8826 205.657L194.8 171.239C196.598 170.735 197.339 167.748 196.452 164.581C195.565 161.413 193.381 159.246 191.583 159.749L68.6655 194.167Z" fill="#F1F1F1"/>
<path d="M78.5644 229.519C76.7663 230.023 76.025 233.01 76.9119 236.177C77.7989 239.345 79.9835 241.512 81.7815 241.009L204.699 206.591C206.497 206.087 207.238 203.101 206.351 199.933C205.464 196.765 203.28 194.598 201.482 195.101L78.5644 229.519Z" fill="#F1F1F1"/>
<path d="M234.278 72.3945C233.523 72.605 232.817 72.9623 232.2 73.446C231.583 73.9297 231.067 74.5302 230.682 75.2133C230.298 75.8964 230.051 76.6487 229.957 77.427C229.864 78.2054 229.924 78.9946 230.135 79.7496C230.347 80.5045 230.705 81.2104 231.189 81.8269C231.674 82.4433 232.275 82.9582 232.958 83.3422C233.642 83.7262 234.395 83.9716 235.173 84.0646C235.951 84.1575 236.741 84.0961 237.495 83.8838L260.474 77.4496C261.998 77.023 263.289 76.0086 264.065 74.6296C264.841 73.2506 265.037 71.6199 264.61 70.0964C264.184 68.5728 263.169 67.2811 261.79 66.5054C260.411 65.7297 258.781 65.5336 257.257 65.9602L234.278 72.3945Z" fill="#F1F1F1"/>
<path d="M243.985 107.061C243.23 107.271 242.524 107.629 241.907 108.113C241.29 108.596 240.774 109.197 240.389 109.88C240.005 110.563 239.758 111.315 239.664 112.094C239.571 112.872 239.631 113.661 239.843 114.416C240.054 115.171 240.412 115.877 240.896 116.493C241.381 117.11 241.982 117.625 242.666 118.009C243.349 118.393 244.102 118.638 244.88 118.731C245.659 118.824 246.448 118.763 247.202 118.55L270.181 112.116C271.705 111.689 272.996 110.675 273.772 109.296C274.548 107.917 274.744 106.286 274.317 104.763C273.891 103.239 272.876 101.948 271.497 101.172C270.118 100.396 268.488 100.2 266.964 100.627L243.985 107.061Z" fill="#F1F1F1"/>
<path d="M253.692 141.727C252.938 141.939 252.232 142.296 251.616 142.78C251 143.264 250.485 143.865 250.101 144.547C249.717 145.23 249.471 145.982 249.378 146.76C249.284 147.538 249.345 148.326 249.556 149.081C249.767 149.835 250.125 150.541 250.609 151.157C251.093 151.773 251.693 152.288 252.376 152.672C253.059 153.056 253.81 153.302 254.588 153.395C255.366 153.489 256.155 153.428 256.909 153.217L279.888 146.783C281.411 146.356 282.703 145.342 283.479 143.963C284.255 142.584 284.451 140.953 284.024 139.429C283.597 137.906 282.583 136.614 281.204 135.838C279.825 135.063 278.194 134.867 276.671 135.293L253.692 141.727Z" fill="#F1F1F1"/>
<path d="M263.399 176.394C261.877 176.822 260.587 177.837 259.813 179.215C259.039 180.594 258.843 182.223 259.269 183.745C259.696 185.268 260.709 186.559 262.086 187.335C263.464 188.111 265.093 188.308 266.616 187.883L289.595 181.449C291.117 181.021 292.406 180.006 293.181 178.628C293.955 177.25 294.15 175.62 293.724 174.098C293.298 172.575 292.285 171.284 290.907 170.509C289.53 169.733 287.901 169.535 286.378 169.96L263.399 176.394Z" fill="#F1F1F1"/>
<path d="M272.673 236.483C271.711 236.751 270.811 237.207 270.025 237.823C269.238 238.439 268.581 239.205 268.091 240.075C267.601 240.945 267.287 241.904 267.167 242.896C267.048 243.887 267.125 244.893 267.394 245.855C267.664 246.817 268.12 247.716 268.737 248.502C269.354 249.287 270.12 249.944 270.991 250.433C271.862 250.922 272.821 251.235 273.813 251.353C274.805 251.472 275.811 251.393 276.772 251.123L306.052 242.924C307.993 242.381 309.639 241.088 310.628 239.331C311.616 237.574 311.866 235.496 311.322 233.555C310.779 231.613 309.486 229.968 307.729 228.979C305.972 227.991 303.894 227.741 301.953 228.284V228.284L272.673 236.483Z" fill="#61A5FA"/>
<path d="M302.807 206.917L86.1401 267.585L86.6794 269.511L303.346 208.842L302.807 206.917Z" fill="#F1F1F1"/>
<path d="M234.619 298.719C234.618 317.11 229.164 335.088 218.946 350.379C208.728 365.671 194.205 377.589 177.213 384.626C160.222 391.663 141.525 393.504 123.488 389.916C105.45 386.327 88.8817 377.471 75.8777 364.466C62.8736 351.461 54.0181 334.892 50.4307 316.854C46.8434 298.816 48.6854 280.12 55.7239 263.129C62.7624 246.138 74.6813 231.616 89.9733 221.398C105.265 211.181 123.243 205.728 141.635 205.729C153.846 205.729 165.937 208.135 177.219 212.808C188.5 217.482 198.751 224.331 207.385 232.966C216.02 241.601 222.869 251.852 227.541 263.134C232.214 274.416 234.619 286.508 234.619 298.719V298.719ZM130.886 347.939L199.863 278.962C200.421 278.405 200.864 277.744 201.166 277.016C201.468 276.288 201.624 275.507 201.624 274.719C201.624 273.93 201.468 273.149 201.166 272.421C200.864 271.693 200.421 271.032 199.863 270.475L191.376 262.05C190.82 261.492 190.159 261.049 189.432 260.747C188.705 260.445 187.925 260.29 187.138 260.29C186.351 260.29 185.571 260.445 184.844 260.747C184.117 261.049 183.456 261.492 182.901 262.05L126.643 318.309L100.375 291.979C99.2469 290.858 97.7213 290.228 96.131 290.228C94.5408 290.228 93.0152 290.858 91.8876 291.979L83.4006 300.516C82.2792 301.644 81.6498 303.169 81.6498 304.76C81.6498 306.35 82.2792 307.875 83.4006 309.003L122.401 347.989C122.957 348.547 123.619 348.99 124.347 349.292C125.075 349.595 125.856 349.75 126.644 349.75C127.432 349.75 128.213 349.595 128.941 349.292C129.669 348.99 130.331 348.547 130.888 347.989L130.886 347.939Z" fill="#61A5FA"/>
</svg>
