<svg width="2694" height="2694" viewBox="0 0 2694 2694" fill="none" xmlns="http://www.w3.org/2000/svg">
<path fill-rule="evenodd" clip-rule="evenodd" d="M700.269 1612.44C700.269 1612.44 673.97 1402.05 957.999 1307.37C1242.03 1212.7 1305.15 1262.66 1305.15 1262.66L1278.85 1346.82C1278.85 1346.82 1234.14 1557.21 1029.01 1586.14C823.874 1615.07 744.977 1572.99 700.269 1612.44Z" fill="#65ADF1"/>
<path d="M1274.69 1272.59L1283 1279.04L1282.31 1279.9C1282.01 1280.27 1281.64 1280.72 1281.2 1281.25L1279.89 1282.81C1278.96 1283.89 1277.95 1285.05 1276.83 1286.3L1275.98 1287.25C1270.21 1293.65 1263.24 1300.77 1255.07 1308.42C1231.76 1330.24 1203.4 1352.04 1169.83 1372.38C1102.42 1413.21 1022.83 1442.9 930.618 1456.72L927.197 1457.22C865.131 1466.23 815.672 1486.85 777.36 1515.54C758.981 1529.3 744.395 1544.03 733.215 1558.72C729.324 1563.83 726.14 1568.57 723.616 1572.79L722.792 1574.2C722.404 1574.87 722.053 1575.5 721.737 1576.08L720.856 1577.77L720.803 1577.88L711.296 1573.37L711.586 1572.78C712.188 1571.58 713.177 1569.76 714.583 1567.4C717.305 1562.84 720.709 1557.78 724.844 1552.35C736.597 1536.9 751.869 1521.49 771.054 1507.12C810.201 1477.81 860.417 1456.69 922.959 1447.22L925.686 1446.81C1017.92 1433.43 1097.32 1404.01 1164.38 1363.38C1197.3 1343.44 1225.09 1322.08 1247.88 1300.75C1255.3 1293.79 1261.69 1287.31 1267.04 1281.45L1268.17 1280.21C1269.83 1278.36 1271.28 1276.7 1272.52 1275.23L1273.91 1273.56L1274.69 1272.59Z" fill="#65ADF1"/>
<path fill-rule="evenodd" clip-rule="evenodd" d="M1270.96 1754.46H1305.15V1262.66H1270.96L1280.17 1413.77C1282.79 1456.77 1283.08 1499.88 1281.03 1542.91L1270.96 1754.46Z" fill="#65ADF1"/>
<path fill-rule="evenodd" clip-rule="evenodd" d="M744.396 892.373C744.396 892.373 849.08 733.187 1098.48 834.052C1347.88 934.914 1360.38 1015.45 1360.38 1015.45L1294.85 1048.08C1294.85 1048.08 1141.62 1165.87 984.496 1066.05C827.375 966.236 797.965 891.465 744.396 892.373Z" fill="#65ADF1"/>
<path fill-rule="evenodd" clip-rule="evenodd" d="M1326.19 1891.21H1352.49L1362.79 1023.07C1362.92 1012.36 1355.86 1002.89 1345.57 999.95L1326.19 994.414C1326.19 994.414 1332.79 1075.08 1331.45 1175.87C1330.16 1272.3 1320.93 1387.04 1320.93 1472.02C1320.93 1712.38 1326.19 1891.21 1326.19 1891.21Z" fill="#65ADF1"/>
<path fill-rule="evenodd" clip-rule="evenodd" d="M1100.01 886.589C1213.51 974.669 1328.82 1031.23 1328.82 1031.23L1294.85 1048.08C1294.85 1048.08 1141.62 1165.87 984.496 1066.05C827.375 966.235 797.965 891.464 744.396 892.372C744.396 892.372 923.811 749.834 1100.01 886.589Z" fill="#4B93D7"/>
<path fill-rule="evenodd" clip-rule="evenodd" d="M1975.13 1268.9C1975.13 1268.9 1904.51 1162.05 1736.27 1229.75C1568.04 1297.45 1559.61 1351.51 1559.61 1351.51L1603.81 1373.41C1603.81 1373.41 1707.17 1452.47 1813.16 1385.47C1919.15 1318.48 1938.99 1268.29 1975.13 1268.9Z" fill="#65ADF1"/>
<path fill-rule="evenodd" clip-rule="evenodd" d="M1582.27 1943.65H1564.1L1556.98 1358.1C1556.89 1350.88 1561.76 1344.5 1568.88 1342.51L1582.27 1338.78C1582.27 1338.78 1577.71 1393.18 1578.64 1461.17C1579.52 1526.21 1585.9 1603.6 1585.9 1660.91C1585.9 1823.03 1582.27 1943.65 1582.27 1943.65Z" fill="#65ADF1"/>
<path fill-rule="evenodd" clip-rule="evenodd" d="M1994.76 689.87C1994.76 689.87 1890.08 530.685 1640.68 631.549C1391.29 732.411 1378.79 812.952 1378.79 812.952L1444.31 845.581C1444.31 845.581 1597.54 963.37 1754.66 863.552C1911.79 763.734 1941.2 688.963 1994.76 689.87Z" fill="#65ADF1"/>
<path fill-rule="evenodd" clip-rule="evenodd" d="M1412.97 1722.9H1386.68L1376.37 820.567C1376.25 809.861 1383.3 800.39 1393.59 797.448L1412.97 791.912C1412.97 791.912 1406.37 872.576 1407.71 973.372C1409 1069.8 1418.23 1184.54 1418.23 1269.52C1418.23 1509.88 1412.97 1722.9 1412.97 1722.9Z" fill="#65ADF1"/>
<path fill-rule="evenodd" clip-rule="evenodd" d="M1994.76 689.869C1994.76 689.869 1815.35 547.331 1639.15 684.086C1525.66 772.167 1410.34 828.731 1410.34 828.731L1444.31 845.581C1444.31 845.581 1597.54 963.369 1754.66 863.551C1911.79 763.733 1941.2 688.962 1994.76 689.869Z" fill="#4B93D7"/>
<path fill-rule="evenodd" clip-rule="evenodd" d="M1460.31 1715.01H1505.02L1522.7 1156.1L1489.02 628.584C1489.15 617.878 1482.1 608.408 1471.8 605.465L1452.42 599.929C1452.42 599.929 1494.5 1018.85 1494.5 1103.83C1494.5 1344.19 1460.31 1715.01 1460.31 1715.01Z" fill="#65ADF1"/>
<path fill-rule="evenodd" clip-rule="evenodd" d="M957.193 304.777C957.193 304.777 1052.68 163.365 1278.85 305.38C1506.68 448.436 1490.86 636.103 1490.86 636.103L1418.05 643.68C1418.05 643.68 1233.24 700.233 1121.12 551.644C1008.99 403.054 1007.67 322.719 957.193 304.777Z" fill="#65ADF1"/>
<path fill-rule="evenodd" clip-rule="evenodd" d="M957.193 304.778C957.193 304.778 1059.98 229.008 1147.35 336.939C1192.06 392.167 1271.16 433.807 1305.15 465.805C1393.44 548.936 1455.77 639.812 1455.77 639.812L1418.06 643.681C1418.06 643.681 1233.24 700.234 1121.12 551.645C1008.99 403.055 1007.67 322.719 957.193 304.778Z" fill="#4B93D7"/>
<path fill-rule="evenodd" clip-rule="evenodd" d="M1696.98 2451.38H1086.85C1051.99 2451.38 1023.73 2423.12 1023.73 2388.26V1778.13C1023.73 1743.27 1051.99 1715.01 1086.85 1715.01H1696.98C1731.84 1715.01 1760.1 1743.27 1760.1 1778.13V2388.26C1760.1 2423.12 1731.84 2451.38 1696.98 2451.38Z" fill="#676C80"/>
</svg>
